<svg width="1440" height="234" viewBox="0 0 1440 234" fill="none" xmlns="http://www.w3.org/2000/svg">
<path d="M0 55.8165C154.08 55.8165 99.36 7.24246e-05 224.64 0C349.92 -7.24246e-05 300.543 132.027 449.28 132.027C564.48 132.027 548.64 69.2339 637.92 69.2339C727.2 69.2339 714.24 113.78 812.16 113.78C910.08 113.78 900 30.055 992.16 30.055C1084.32 30.055 1032.48 79.4311 1167.84 79.4311C1258.56 79.4311 1250.98 61.8229 1329.12 61.7202C1415.89 61.6061 1440 109.486 1440 109.486V234H0V55.8165Z" fill="white"/>
<path d="M0 150.275C0 150.275 106.56 64.4036 342.72 64.4036C578.88 64.4036 603.36 144.372 770.4 144.372C937.44 144.372 892.8 89.0917 993.6 88.0183C1094.4 86.9449 1042.56 127.734 1202.4 127.734C1362.24 127.734 1361.51 26.9764 1440 26.8348V234H0V150.275Z" fill="#FBEDE6"/>
</svg>
