<svg width="26" height="24" viewBox="0 0 26 24" fill="none" xmlns="http://www.w3.org/2000/svg">
<path fill-rule="evenodd" clip-rule="evenodd" d="M16.9973 4C16.9973 6.20914 18.7882 8 20.9973 8C23.2065 8 24.9973 6.20914 24.9973 4C24.9973 1.79086 23.2065 0 20.9973 0C18.7882 0 16.9973 1.79086 16.9973 4ZM16 24H3C1.50036 24 0.534178 22.4107 1.22449 21.0794L7.96523 9.07937C8.72397 7.61609 10.8277 7.64726 11.5427 9.13237L14.0566 13.9519L15.4131 12.008C16.1763 10.672 18.0991 10.6621 18.876 11.9901L24.7263 20.9901C25.5063 22.3234 24.5447 24 23 24H16.0307L16.0159 23.9999L16 24Z" fill="#1A1A1A"/>
</svg>
