<svg width="36" height="36" viewBox="0 0 36 36" fill="none" xmlns="http://www.w3.org/2000/svg">
<path d="M30.0937 4.75902C31.8186 4.40477 33.5195 3.49173 33.5195 3.49173C34.2777 3.13566 34.5613 3.41389 34.1524 4.13127C34.1524 4.13127 33.1316 6.24768 31.5719 7.2307C33.0991 7.03894 34.4778 6.47922 34.4778 6.47922C35.2724 6.20897 35.4865 6.85085 34.9665 7.5C34.9665 7.5 33.6181 9.37871 32.1429 10.5C32.1557 10.8391 32.1616 10.7793 32.1616 11.1254C32.1616 23.1348 26.1011 33.75 10.6754 33.75C4.87831 33.75 1.77476 31.4498 1.77476 31.4498C0.277502 30.6878 0.44747 29.7983 2.11094 29.5495C2.11094 29.5495 7.69557 29.0176 10.2794 26.884C-4.50001 19.5 1.52809 5.20387 1.52809 5.20387C1.58603 4.37994 2.15581 4.17007 2.76602 4.74832C2.76602 4.74832 9.4179 11.6805 17.2278 12.0126C17.0981 11.4302 17.0332 10.8257 17.0332 10.202C17.0332 5.81067 20.4151 2.25 24.5821 2.25C26.7561 2.25 28.7198 3.21485 30.0937 4.75902Z" fill="#1A1A1A"/>
<mask id="mask0" style="mask-type:alpha" maskUnits="userSpaceOnUse" x="0" y="2" width="36" height="32">
<path d="M30.0937 4.75902C31.8186 4.40477 33.5195 3.49173 33.5195 3.49173C34.2777 3.13566 34.5613 3.41389 34.1524 4.13127C34.1524 4.13127 33.1316 6.24768 31.5719 7.2307C33.0991 7.03894 34.4778 6.47922 34.4778 6.47922C35.2724 6.20897 35.4865 6.85085 34.9665 7.5C34.9665 7.5 33.6181 9.37871 32.1429 10.5C32.1557 10.8391 32.1616 10.7793 32.1616 11.1254C32.1616 23.1348 26.1011 33.75 10.6754 33.75C4.87831 33.75 1.77476 31.4498 1.77476 31.4498C0.277502 30.6878 0.44747 29.7983 2.11094 29.5495C2.11094 29.5495 7.69557 29.0176 10.2794 26.884C-4.50001 19.5 1.52809 5.20387 1.52809 5.20387C1.58603 4.37994 2.15581 4.17007 2.76602 4.74832C2.76602 4.74832 9.4179 11.6805 17.2278 12.0126C17.0981 11.4302 17.0332 10.8257 17.0332 10.202C17.0332 5.81067 20.4151 2.25 24.5821 2.25C26.7561 2.25 28.7198 3.21485 30.0937 4.75902Z" fill="white"/>
</mask>
<g mask="url(#mask0)">
</g>
</svg>
