<svg width="24" height="24" viewBox="0 0 24 24" fill="none" xmlns="http://www.w3.org/2000/svg">
<path fill-rule="evenodd" clip-rule="evenodd" d="M5.5 7.5C5.5 3.33824 7.83824 1 12 1C16.1618 1 18.5 3.33824 18.5 7.5H19C20.6569 7.5 22 8.84315 22 10.5V20C22 21.6569 20.6569 23 19 23H5C3.34315 23 2 21.6569 2 20V10.5C2 8.84315 3.34315 7.5 5 7.5H5.5ZM12 18.5C13.6569 18.5 15 17.1569 15 15.5C15 13.8431 13.6569 12.5 12 12.5C10.3431 12.5 9 13.8431 9 15.5C9 17.1569 10.3431 18.5 12 18.5ZM16 7.5H8C8 4.27941 9.13725 3 12 3C14.8628 3 16 4.27941 16 7.5Z" fill="#1A1A1A" fill-opacity="0.25"/>
</svg>
