<svg width="40" height="40" viewBox="0 0 40 40" fill="none" xmlns="http://www.w3.org/2000/svg">
<path fill-rule="evenodd" clip-rule="evenodd" d="M1.6665 22.1226C1.6665 23.1945 2.35858 24.1437 3.37908 24.4716L6.26676 25.3993C6.35874 25.4288 6.44517 25.4734 6.52254 25.5313C6.90868 25.82 6.98763 26.3671 6.6989 26.7533L5.46575 28.4024C4.73128 29.3846 4.82982 30.7572 5.69706 31.6245L8.37537 34.3028C9.24261 35.17 10.6152 35.2685 11.5974 34.5341L13.2466 33.3009C13.3239 33.2431 13.4104 33.1985 13.5024 33.1689C13.9614 33.0214 14.4531 33.274 14.6006 33.7331L15.5283 36.6207C15.8561 37.6412 16.8054 38.3333 17.8772 38.3333H22.1224C23.1943 38.3333 24.1436 37.6412 24.4714 36.6207L25.3991 33.7331C25.4287 33.6411 25.4733 33.5547 25.5311 33.4773C25.8199 33.0911 26.367 33.0122 26.7531 33.3009L28.4022 34.5341C29.3845 35.2685 30.7571 35.17 31.6243 34.3028L34.3026 31.6245C35.1699 30.7572 35.2684 29.3846 34.5339 28.4024L33.3008 26.7533C33.2429 26.6759 33.1983 26.5894 33.1688 26.4975C33.0213 26.0384 33.2739 25.5467 33.7329 25.3993L36.6206 24.4716C37.6411 24.1437 38.3332 23.1945 38.3332 22.1226V17.8774C38.3332 16.8055 37.6411 15.8563 36.6206 15.5284L33.7329 14.6007C33.6409 14.5712 33.5545 14.5265 33.4771 14.4687C33.091 14.18 33.012 13.6329 33.3008 13.2467L34.5339 11.5976C35.2684 10.6154 35.1699 9.24276 34.3026 8.37552L31.6243 5.69721C30.7571 4.82997 29.3845 4.73143 28.4022 5.4659L26.7531 6.69905C26.6757 6.7569 26.5893 6.80151 26.4973 6.83106C26.0383 6.97854 25.5466 6.72596 25.3991 6.26691L24.4714 3.37923C24.1436 2.35873 23.1943 1.66666 22.1224 1.66666H17.8772C16.8054 1.66666 15.8561 2.35873 15.5283 3.37923L14.6006 6.26691C14.571 6.35889 14.5264 6.44532 14.4685 6.52269C14.1798 6.90883 13.6327 6.98779 13.2466 6.69905L11.5974 5.4659C10.6152 4.73143 9.24261 4.82997 8.37537 5.69721L5.69706 8.37552C4.82982 9.24276 4.73128 10.6154 5.46575 11.5976L6.6989 13.2467C6.75675 13.3241 6.80136 13.4105 6.83091 13.5025C6.97838 13.9616 6.72581 14.4532 6.26676 14.6007L3.37908 15.5284C2.35858 15.8563 1.6665 16.8055 1.6665 17.8774V22.1226ZM26.6665 20C26.6665 23.6819 23.6817 26.6667 19.9998 26.6667C16.3179 26.6667 13.3332 23.6819 13.3332 20C13.3332 16.3181 16.3179 13.3333 19.9998 13.3333C23.6817 13.3333 26.6665 16.3181 26.6665 20Z" fill="#1A1A1A"/>
</svg>
