<svg width="24" height="24" viewBox="0 0 24 24" fill="none" xmlns="http://www.w3.org/2000/svg">
<path d="M14.3111 13.344C13.9966 13.2205 14.0503 12.7845 14.3671 12.6663C16.8804 11.7288 17.6667 9.34195 17.6667 6.54545C17.6667 2.9305 14.6819 1 12 1C9.31811 1 6.33333 2.9305 6.33333 6.54545C6.33333 9.34195 7.11954 11.7288 9.6329 12.6663C9.94962 12.7845 10.0034 13.2205 9.68883 13.344C9.68883 13.344 3 15.1187 3 19.7951C3 19.7951 3 23 6.33333 23H17.6667C21 23 21 19.7951 21 19.7951C21 15.1187 14.3111 13.344 14.3111 13.344Z" fill="#1A1A1A" fill-opacity="0.25"/>
</svg>
