<svg width="630" height="500" viewBox="0 0 630 500" fill="none" xmlns="http://www.w3.org/2000/svg">
  <mask id="path-1-inside-1" fill="white">
  <path fill-rule="evenodd" clip-rule="evenodd" d="M0.871948 4.36808C0 6.07937 0 8.31957 0 12.8V487.2C0 491.68 0 493.921 0.871948 495.632C1.63893 497.137 2.86278 498.361 4.36808 499.128C6.07937 500 8.31957 500 12.8 500H617.2C621.68 500 623.921 500 625.632 499.128C627.137 498.361 628.361 497.137 629.128 495.632C630 493.921 630 491.68 630 487.2V12.8C630 8.31958 630 6.07937 629.128 4.36808C628.361 2.86278 627.137 1.63893 625.632 0.871948C623.921 0 621.68 0 617.2 0H12.8C8.31958 0 6.07937 0 4.36808 0.871948C2.86278 1.63893 1.63893 2.86278 0.871948 4.36808ZM12 18C12 21.3137 14.6863 24 18 24C21.3137 24 24 21.3137 24 18C24 14.6863 21.3137 12 18 12C14.6863 12 12 14.6863 12 18ZM32 18C32 21.3137 34.6863 24 38 24C41.3137 24 44 21.3137 44 18C44 14.6863 41.3137 12 38 12C34.6863 12 32 14.6863 32 18ZM58 24C54.6863 24 52 21.3137 52 18C52 14.6863 54.6863 12 58 12C61.3137 12 64 14.6863 64 18C64 21.3137 61.3137 24 58 24Z"/>
  </mask>
  <path fill-rule="evenodd" clip-rule="evenodd" d="M0.871948 4.36808C0 6.07937 0 8.31957 0 12.8V487.2C0 491.68 0 493.921 0.871948 495.632C1.63893 497.137 2.86278 498.361 4.36808 499.128C6.07937 500 8.31957 500 12.8 500H617.2C621.68 500 623.921 500 625.632 499.128C627.137 498.361 628.361 497.137 629.128 495.632C630 493.921 630 491.68 630 487.2V12.8C630 8.31958 630 6.07937 629.128 4.36808C628.361 2.86278 627.137 1.63893 625.632 0.871948C623.921 0 621.68 0 617.2 0H12.8C8.31958 0 6.07937 0 4.36808 0.871948C2.86278 1.63893 1.63893 2.86278 0.871948 4.36808ZM12 18C12 21.3137 14.6863 24 18 24C21.3137 24 24 21.3137 24 18C24 14.6863 21.3137 12 18 12C14.6863 12 12 14.6863 12 18ZM32 18C32 21.3137 34.6863 24 38 24C41.3137 24 44 21.3137 44 18C44 14.6863 41.3137 12 38 12C34.6863 12 32 14.6863 32 18ZM58 24C54.6863 24 52 21.3137 52 18C52 14.6863 54.6863 12 58 12C61.3137 12 64 14.6863 64 18C64 21.3137 61.3137 24 58 24Z" fill="white"/>
  <path d="M0.871948 4.36808L-0.910065 3.46009L-0.910065 3.46009L0.871948 4.36808ZM0.871948 495.632L-0.910067 496.54L-0.910061 496.54L0.871948 495.632ZM4.36808 499.128L3.46008 500.91L3.46009 500.91L4.36808 499.128ZM625.632 499.128L624.724 497.346L624.724 497.346L625.632 499.128ZM629.128 495.632L627.346 494.724L627.346 494.724L629.128 495.632ZM629.128 4.36808L627.346 5.27604L627.346 5.27606L629.128 4.36808ZM625.632 0.871948L624.724 2.65395L624.724 2.65396L625.632 0.871948ZM4.36808 0.871948L3.46009 -0.910065L3.46009 -0.910065L4.36808 0.871948ZM2 12.8C2 10.5268 2.00156 8.94215 2.10235 7.70847C2.20124 6.49814 2.38559 5.80277 2.65396 5.27606L-0.910065 3.46009C-1.51364 4.64468 -1.76527 5.92505 -1.88436 7.38275C-2.00156 8.81709 -2 10.5928 -2 12.8H2ZM2 487.2V12.8H-2V487.2H2ZM2.65396 494.724C2.38559 494.197 2.20124 493.502 2.10235 492.292C2.00156 491.058 2 489.473 2 487.2H-2C-2 489.407 -2.00156 491.183 -1.88436 492.617C-1.76527 494.075 -1.51364 495.355 -0.910067 496.54L2.65396 494.724ZM5.27607 497.346C4.14709 496.771 3.2292 495.853 2.65396 494.724L-0.910061 496.54C0.0486723 498.422 1.57847 499.951 3.46008 500.91L5.27607 497.346ZM12.8 498C10.5268 498 8.94216 497.998 7.70848 497.898C6.49814 497.799 5.80277 497.614 5.27606 497.346L3.46009 500.91C4.64468 501.514 5.92505 501.765 7.38275 501.884C8.8171 502.002 10.5928 502 12.8 502V498ZM617.2 498H12.8V502H617.2V498ZM624.724 497.346C624.197 497.614 623.502 497.799 622.292 497.898C621.058 497.998 619.473 498 617.2 498V502C619.407 502 621.183 502.002 622.617 501.884C624.075 501.765 625.355 501.514 626.54 500.91L624.724 497.346ZM627.346 494.724C626.771 495.853 625.853 496.771 624.724 497.346L626.54 500.91C628.421 499.951 629.951 498.422 630.91 496.54L627.346 494.724ZM628 487.2C628 489.473 627.998 491.058 627.898 492.292C627.799 493.502 627.614 494.197 627.346 494.724L630.91 496.54C631.514 495.355 631.765 494.075 631.884 492.617C632.002 491.183 632 489.407 632 487.2H628ZM628 12.8V487.2H632V12.8H628ZM627.346 5.27606C627.614 5.80277 627.799 6.49814 627.898 7.70848C627.998 8.94216 628 10.5268 628 12.8H632C632 10.5928 632.002 8.8171 631.884 7.38275C631.765 5.92505 631.514 4.64468 630.91 3.46009L627.346 5.27606ZM624.724 2.65396C625.853 3.22921 626.771 4.1471 627.346 5.27604L630.91 3.46011C629.951 1.57846 628.421 0.0486561 626.54 -0.910068L624.724 2.65396ZM617.2 2C619.473 2 621.058 2.00156 622.292 2.10235C623.502 2.20124 624.197 2.38559 624.724 2.65395L626.54 -0.910054C625.355 -1.51364 624.075 -1.76527 622.617 -1.88436C621.183 -2.00156 619.407 -2 617.2 -2V2ZM12.8 2H617.2V-2H12.8V2ZM5.27606 2.65396C5.80277 2.38559 6.49814 2.20124 7.70848 2.10235C8.94216 2.00156 10.5268 2 12.8 2V-2C10.5928 -2 8.8171 -2.00156 7.38275 -1.88436C5.92505 -1.76527 4.64468 -1.51364 3.46009 -0.910065L5.27606 2.65396ZM2.65396 5.27606C3.2292 4.14708 4.14708 3.2292 5.27606 2.65396L3.46009 -0.910065C1.57847 0.0486686 0.0486686 1.57847 -0.910065 3.46009L2.65396 5.27606ZM18 22C15.7909 22 14 20.2091 14 18H10C10 22.4183 13.5817 26 18 26V22ZM22 18C22 20.2091 20.2091 22 18 22V26C22.4183 26 26 22.4183 26 18H22ZM18 14C20.2091 14 22 15.7909 22 18H26C26 13.5817 22.4183 10 18 10V14ZM14 18C14 15.7909 15.7909 14 18 14V10C13.5817 10 10 13.5817 10 18H14ZM38 22C35.7909 22 34 20.2091 34 18H30C30 22.4183 33.5817 26 38 26V22ZM42 18C42 20.2091 40.2091 22 38 22V26C42.4183 26 46 22.4183 46 18H42ZM38 14C40.2091 14 42 15.7909 42 18H46C46 13.5817 42.4183 10 38 10V14ZM34 18C34 15.7909 35.7909 14 38 14V10C33.5817 10 30 13.5817 30 18H34ZM50 18C50 22.4183 53.5817 26 58 26V22C55.7909 22 54 20.2091 54 18H50ZM58 10C53.5817 10 50 13.5817 50 18H54C54 15.7909 55.7909 14 58 14V10ZM66 18C66 13.5817 62.4183 10 58 10V14C60.2091 14 62 15.7909 62 18H66ZM58 26C62.4183 26 66 22.4183 66 18H62C62 20.2091 60.2091 22 58 22V26Z" fill="#1A1A1A" mask="url(#path-1-inside-1)"/>
  </svg>
  